mtllib new-1.mtl
v 0.064303 -0.720851 -0.376510
v 0.196601 -0.720851 -0.365915
v 0.261915 -0.720851 -0.356685
v 0.130661 -0.720851 -0.372532
v -0.002267 -0.720851 -0.377837
v -0.068836 -0.720851 -0.376510
v 0.064303 -0.720851 0.373405
v 0.196601 -0.720851 0.362810
v 0.261915 -0.720851 0.353578
v -0.135197 -0.720851 -0.372532
v 0.326398 -0.720851 -0.344868
v 0.389736 -0.720851 -0.330529
v 0.399299 -0.720851 -0.327858
v 0.408384 -0.720851 -0.324735
v 0.130661 -0.720851 0.369427
v -0.002267 -0.720851 0.374732
v -0.068836 -0.720851 0.373405
v 0.326398 -0.720851 0.341761
v -0.201137 -0.720851 -0.365915
v 0.417033 -0.720851 -0.321162
v -0.135197 -0.720851 0.369427
v -0.201137 -0.720851 0.362810
v 0.389736 -0.720851 0.327422
v -0.266451 -0.720851 -0.356685
v -0.330932 -0.720851 -0.344868
v 0.399299 -0.720851 0.324753
v 0.408384 -0.720851 0.321631
v -0.266451 -0.720851 0.353578
v -0.394272 -0.720851 -0.330529
v 0.425190 -0.720851 -0.317176
v 0.417033 -0.720851 0.318057
v -0.330932 -0.720851 0.341761
v -0.394272 -0.720851 0.327422
v -0.403835 -0.720851 -0.327858
v 0.439822 -0.720851 -0.308132
v 0.432800 -0.720851 -0.312819
v 0.425190 -0.720851 0.314069
v -0.412917 -0.720851 -0.324735
v 0.432800 -0.720851 0.309711
v -0.403835 -0.720851 0.324753
v -0.421566 -0.720851 -0.321162
v 0.451950 -0.720851 -0.297988
v 0.446217 -0.720851 -0.303174
v -0.412917 -0.720851 0.321631
v -0.421566 -0.720851 0.318057
v -0.437336 -0.720851 -0.312819
v 0.439822 -0.720851 0.305028
v -0.429724 -0.720851 0.314069
v -0.429724 -0.720851 -0.317176
v 0.451950 -0.720851 0.294884
v 0.457008 -0.720851 -0.292635
v 0.446217 -0.720851 0.300066
v -0.444358 -0.720851 -0.308132
v 0.461376 -0.720851 -0.287162
v -0.437336 -0.720851 0.309711
v -0.444358 -0.720851 0.305028
v -0.450750 -0.720851 -0.303174
v 0.465056 -0.720851 -0.281620
v 0.457008 -0.720851 0.289530
v -0.450750 -0.720851 0.300066
v -0.456486 -0.720851 -0.297988
v 0.468153 -0.720851 -0.275884
v 0.461376 -0.720851 0.284057
v -0.461541 -0.720851 -0.292635
v 0.465056 -0.720851 0.278515
v -0.456486 -0.720851 0.294884
v -0.461541 -0.720851 0.289530
v -0.465909 -0.720851 -0.287162
v 0.487583 -0.720851 -0.231455
v 0.468153 -0.720851 0.272777
v -0.465909 -0.720851 0.284057
v -0.469589 -0.720851 -0.281620
v -0.469589 -0.720851 0.278515
v 0.503597 -0.720851 -0.186225
v 0.487583 -0.720851 0.228350
v -0.472686 -0.720851 -0.275884
v -0.492119 -0.720851 -0.231455
v -0.472686 -0.720851 0.272777
v 0.516087 -0.720851 -0.140494
v 0.503597 -0.720851 0.183121
v -0.492119 -0.720851 0.228350
v -0.508133 -0.720851 0.183121
v -0.508133 -0.720851 -0.186225
v 0.525024 -0.720851 -0.094386
v 0.516087 -0.720851 0.137389
v -0.520621 -0.720851 0.137389
v -0.520621 -0.720851 -0.140494
v 0.525024 -0.720851 0.091281
v -0.529560 -0.720851 0.091281
v -0.529560 -0.720851 -0.094386
v -0.534929 -0.720851 -0.048031
v -0.534929 -0.720851 0.044926
v -0.536719 -0.720851 -0.001554
vn 0.000000 -1.000000 0.000000
vn 0.000000 1.000000 0.000000
usemtl material-0
f 4//1 7//1 1//1
f 1//1 7//1 5//1
f 2//1 8//1 4//1
f 3//1 9//1 2//1
f 4//1 15//1 7//1
f 5//1 7//1 16//1
f 5//1 17//1 6//1
f 2//1 9//1 8//1
f 4//1 8//1 15//1
f 3//1 18//1 9//1
f 11//1 18//1 3//1
f 5//1 16//1 17//1
f 6//1 17//1 21//1
f 6//1 21//1 10//1
f 10//1 22//1 19//1
f 12//1 18//1 11//1
f 13//1 23//1 12//1
f 14//1 26//1 13//1
f 20//1 27//1 14//1
f 10//1 21//1 22//1
f 19//1 22//1 28//1
f 12//1 23//1 18//1
f 13//1 26//1 23//1
f 19//1 28//1 24//1
f 14//1 27//1 26//1
f 20//1 31//1 27//1
f 24//1 28//1 25//1
f 25//1 32//1 29//1
f 30//1 31//1 20//1
f 25//1 28//1 32//1
f 29//1 32//1 33//1
f 30//1 37//1 31//1
f 29//1 33//1 34//1
f 36//1 39//1 30//1
f 30//1 39//1 37//1
f 34//1 33//1 40//1
f 34//1 40//1 38//1
f 35//1 39//1 36//1
f 38//1 40//1 44//1
f 38//1 45//1 41//1
f 43//1 47//1 35//1
f 35//1 47//1 39//1
f 38//1 44//1 45//1
f 41//1 45//1 48//1
f 42//1 50//1 43//1
f 43//1 52//1 47//1
f 41//1 48//1 49//1
f 49//1 48//1 46//1
f 51//1 50//1 42//1
f 43//1 50//1 52//1
f 46//1 48//1 55//1
f 46//1 56//1 53//1
f 51//1 59//1 50//1
f 46//1 55//1 56//1
f 53//1 56//1 60//1
f 53//1 60//1 57//1
f 58//1 63//1 54//1
f 54//1 63//1 51//1
f 51//1 63//1 59//1
f 57//1 60//1 61//1
f 62//1 65//1 58//1
f 58//1 65//1 63//1
f 61//1 60//1 66//1
f 61//1 67//1 64//1
f 62//1 70//1 65//1
f 61//1 66//1 67//1
f 64//1 67//1 71//1
f 64//1 71//1 68//1
f 69//1 70//1 62//1
f 68//1 71//1 73//1
f 68//1 73//1 72//1
f 69//1 75//1 70//1
f 72//1 73//1 76//1
f 74//1 75//1 69//1
f 76//1 73//1 78//1
f 74//1 80//1 75//1
f 76//1 81//1 77//1
f 76//1 78//1 81//1
f 79//1 80//1 74//1
f 77//1 81//1 82//1
f 79//1 85//1 80//1
f 77//1 82//1 83//1
f 84//1 85//1 79//1
f 83//1 82//1 86//1
f 84//1 88//1 85//1
f 83//1 86//1 87//1
f 87//1 86//1 89//1
f 87//1 89//1 90//1
f 90//1 92//1 91//1
f 91//1 92//1 93//1
usemtl material-1
f 1//2 7//2 4//2
f 5//2 7//2 1//2
f 4//2 8//2 2//2
f 2//2 9//2 3//2
f 7//2 15//2 4//2
f 16//2 7//2 5//2
f 6//2 17//2 5//2
f 8//2 9//2 2//2
f 15//2 8//2 4//2
f 9//2 18//2 3//2
f 3//2 18//2 11//2
f 17//2 16//2 5//2
f 21//2 17//2 6//2
f 10//2 21//2 6//2
f 19//2 22//2 10//2
f 11//2 18//2 12//2
f 12//2 23//2 13//2
f 13//2 26//2 14//2
f 14//2 27//2 20//2
f 22//2 21//2 10//2
f 28//2 22//2 19//2
f 18//2 23//2 12//2
f 23//2 26//2 13//2
f 24//2 28//2 19//2
f 26//2 27//2 14//2
f 27//2 31//2 20//2
f 25//2 28//2 24//2
f 29//2 32//2 25//2
f 20//2 31//2 30//2
f 32//2 28//2 25//2
f 33//2 32//2 29//2
f 31//2 37//2 30//2
f 34//2 33//2 29//2
f 30//2 39//2 36//2
f 37//2 39//2 30//2
f 40//2 33//2 34//2
f 38//2 40//2 34//2
f 36//2 39//2 35//2
f 44//2 40//2 38//2
f 41//2 45//2 38//2
f 35//2 47//2 43//2
f 39//2 47//2 35//2
f 45//2 44//2 38//2
f 48//2 45//2 41//2
f 43//2 50//2 42//2
f 47//2 52//2 43//2
f 49//2 48//2 41//2
f 46//2 48//2 49//2
f 42//2 50//2 51//2
f 52//2 50//2 43//2
f 55//2 48//2 46//2
f 53//2 56//2 46//2
f 50//2 59//2 51//2
f 56//2 55//2 46//2
f 60//2 56//2 53//2
f 57//2 60//2 53//2
f 54//2 63//2 58//2
f 51//2 63//2 54//2
f 59//2 63//2 51//2
f 61//2 60//2 57//2
f 58//2 65//2 62//2
f 63//2 65//2 58//2
f 66//2 60//2 61//2
f 64//2 67//2 61//2
f 65//2 70//2 62//2
f 67//2 66//2 61//2
f 71//2 67//2 64//2
f 68//2 71//2 64//2
f 62//2 70//2 69//2
f 73//2 71//2 68//2
f 72//2 73//2 68//2
f 70//2 75//2 69//2
f 76//2 73//2 72//2
f 69//2 75//2 74//2
f 78//2 73//2 76//2
f 75//2 80//2 74//2
f 77//2 81//2 76//2
f 81//2 78//2 76//2
f 74//2 80//2 79//2
f 82//2 81//2 77//2
f 80//2 85//2 79//2
f 83//2 82//2 77//2
f 79//2 85//2 84//2
f 86//2 82//2 83//2
f 85//2 88//2 84//2
f 87//2 86//2 83//2
f 89//2 86//2 87//2
f 90//2 89//2 87//2
f 91//2 92//2 90//2
f 93//2 92//2 91//2