# Blender 3.4.1
# www.blender.org
mtllib model.mtl
o Cube
v -0.375799 -0.529471 0.138068
v -0.375799 -0.529471 0.154417
v -0.336740 0.543455 0.138068
v -0.336740 0.543455 0.154417
v 0.297929 -0.553998 0.138068
v 0.297929 -0.553998 0.154417
v 0.336988 0.518928 0.138068
v 0.336988 0.518928 0.154417
vn -0.9993 0.0364 -0.0000
vn 0.0364 0.9993 -0.0000
vn 0.9993 -0.0364 -0.0000
vn -0.0364 -0.9993 -0.0000
vn -0.0000 -0.0000 -1.0000
vn -0.0000 -0.0000 1.0000
vt 0.375000 0.000000
vt 0.375000 1.000000
vt 0.125000 0.750000
vt 0.625000 0.000000
vt 0.625000 1.000000
vt 0.875000 0.750000
vt 0.375000 0.250000
vt 0.125000 0.500000
vt 0.625000 0.250000
vt 0.875000 0.500000
vt 0.375000 0.750000
vt 0.625000 0.750000
vt 0.375000 0.500000
vt 0.625000 0.500000
s 0
usemtl Material.001
f 1/1/1 2/4/1 4/9/1 3/7/1
f 3/7/2 4/9/2 8/14/2 7/13/2
f 7/13/3 8/14/3 6/12/3 5/11/3
f 5/11/4 6/12/4 2/5/4 1/2/4
f 3/8/5 7/13/5 5/11/5 1/3/5
f 8/14/6 4/10/6 2/6/6 6/12/6
o Cube.001
v -0.405947 -1.135302 -0.078199
v -0.405947 -1.135302 -0.064992
v -0.380251 -0.429474 -0.078199
v -0.380251 -0.429474 -0.064992
v 0.318627 -0.454917 -0.078199
v 0.318627 -0.454917 -0.064992
v 0.318627 -0.454917 -0.078199
v -0.274790 -1.140076 -0.078199
v 0.302705 -0.592220 -0.078199
v 0.265578 -0.723452 -0.078199
v 0.208673 -0.843570 -0.078199
v 0.134175 -0.947959 -0.078199
v 0.044949 -1.032605 -0.078199
v -0.055577 -1.094258 -0.078199
v -0.163539 -1.130546 -0.078199
v -0.274790 -1.140076 -0.064992
v 0.318627 -0.454917 -0.064992
v -0.163539 -1.130546 -0.064992
v -0.055577 -1.094258 -0.064992
v 0.044949 -1.032605 -0.064992
v 0.134175 -0.947959 -0.064992
v 0.208673 -0.843570 -0.064992
v 0.265578 -0.723452 -0.064992
v 0.302705 -0.592220 -0.064992
vn -0.9993 0.0364 -0.0000
vn 0.0364 0.9993 -0.0000
vn -0.0364 -0.9993 -0.0000
vn -0.0000 -0.0000 1.0000
vn 0.0854 -0.9964 -0.0000
vn 0.3186 -0.9479 -0.0000
vn 0.5228 -0.8525 -0.0000
vn 0.6882 -0.7255 -0.0000
vn 0.8140 -0.5809 -0.0000
vn 0.9037 -0.4281 -0.0000
vn 0.9622 -0.2722 -0.0000
vn 0.9933 -0.1152 -0.0000
vn -0.0000 -0.0000 -1.0000
vt 0.375000 0.000000
vt 0.375000 1.000000
vt 0.125000 0.750000
vt 0.625000 0.000000
vt 0.625000 1.000000
vt 0.875000 0.750000
vt 0.375000 0.250000
vt 0.125000 0.500000
vt 0.625000 0.250000
vt 0.875000 0.500000
vt 0.375000 0.500000
vt 0.625000 0.500000
vt 0.375000 0.500000
vt 0.375000 0.953083
vt 0.171917 0.750000
vt 0.375000 0.548773
vt 0.371098 0.548773
vt 0.375000 0.595671
vt 0.359541 0.595671
vt 0.375000 0.638893
vt 0.340774 0.638893
vt 0.375000 0.750000
vt 0.315518 0.676777
vt 0.375000 0.840256
vt 0.284744 0.707867
vt 0.375000 0.875367
vt 0.249633 0.730970
vt 0.375000 0.913464
vt 0.211536 0.745196
vt 0.828083 0.750000
vt 0.625000 0.953083
vt 0.625000 0.500000
vt 0.788464 0.745196
vt 0.625000 0.913464
vt 0.750367 0.730970
vt 0.625000 0.875367
vt 0.715256 0.707867
vt 0.625000 0.840256
vt 0.684482 0.676777
vt 0.625000 0.750000
vt 0.659226 0.638893
vt 0.625000 0.638893
vt 0.640459 0.595671
vt 0.625000 0.595671
vt 0.628902 0.548773
vt 0.625000 0.548773
s 0
usemtl Material.001
f 9/15/7 10/18/7 12/23/7 11/21/7
f 11/21/8 12/23/8 14/26/8 13/25/8
f 16/28/9 24/45/9 10/19/9 9/16/9
f 14/26/10 12/24/10 10/20/10 24/44/10 26/47/10 27/49/10 28/51/10 29/53/10 30/55/10 31/57/10 32/59/10 25/46/10
f 13/25/10 14/26/10 25/46/10 15/27/10
f 24/45/11 16/28/11 23/42/11 26/48/11
f 26/48/12 23/42/12 22/40/12 27/50/12
f 27/50/13 22/40/13 21/38/13 28/52/13
f 28/52/14 21/38/14 20/36/14 29/54/14
f 29/54/15 20/36/15 19/34/15 30/56/15
f 30/56/16 19/34/16 18/32/16 31/58/16
f 31/58/17 18/32/17 17/30/17 32/60/17
f 32/60/18 17/30/18 15/27/18 25/46/18
f 11/22/19 13/25/19 15/27/19 17/31/19 18/33/19 19/35/19 20/37/19 21/39/19 22/41/19 23/43/19 16/29/19 9/17/19
o Cube.002
v 0.367352 0.433056 -0.082424
v 0.367352 0.433056 -0.069217
v -0.338320 0.462714 -0.082424
v -0.338320 0.462714 -0.069217
v -0.308954 1.161438 -0.082424
v -0.308954 1.161438 -0.069217
v -0.308954 1.161438 -0.082424
v 0.372863 0.564184 -0.082424
v -0.171743 1.144746 -0.082424
v -0.040721 1.106883 -0.082424
v 0.079076 1.049304 -0.082424
v 0.183044 0.974222 -0.082424
v 0.267189 0.884522 -0.082424
v 0.328275 0.783651 -0.082424
v 0.363957 0.675486 -0.082424
v 0.372863 0.564184 -0.069217
v -0.308954 1.161438 -0.069217
v 0.363957 0.675486 -0.069217
v 0.328275 0.783651 -0.069217
v 0.267189 0.884522 -0.069217
v 0.183044 0.974222 -0.069217
v 0.079076 1.049304 -0.069217
v -0.040721 1.106883 -0.069217
v -0.171743 1.144746 -0.069217
vn -0.0420 -0.9991 -0.0000
vn -0.9991 0.0420 -0.0000
vn 0.9991 -0.0420 -0.0000
vn -0.0000 -0.0000 1.0000
vn 0.9968 0.0798 -0.0000
vn 0.9497 0.3133 -0.0000
vn 0.8554 0.5180 -0.0000
vn 0.7293 0.6842 -0.0000
vn 0.5855 0.8107 -0.0000
vn 0.4332 0.9013 -0.0000
vn 0.2776 0.9607 -0.0000
vn 0.1208 0.9927 -0.0000
vn -0.0000 -0.0000 -1.0000
vt 0.375000 0.000000
vt 0.375000 1.000000
vt 0.125000 0.750000
vt 0.625000 0.000000
vt 0.625000 1.000000
vt 0.875000 0.750000
vt 0.375000 0.250000
vt 0.125000 0.500000
vt 0.625000 0.250000
vt 0.875000 0.500000
vt 0.375000 0.500000
vt 0.625000 0.500000
vt 0.375000 0.500000
vt 0.375000 0.953083
vt 0.171917 0.750000
vt 0.375000 0.548773
vt 0.371098 0.548773
vt 0.375000 0.595671
vt 0.359541 0.595671
vt 0.375000 0.638893
vt 0.340774 0.638893
vt 0.375000 0.750000
vt 0.315518 0.676777
vt 0.375000 0.840256
vt 0.284744 0.707867
vt 0.375000 0.875367
vt 0.249633 0.730970
vt 0.375000 0.913464
vt 0.211536 0.745196
vt 0.828083 0.750000
vt 0.625000 0.953083
vt 0.625000 0.500000
vt 0.788464 0.745196
vt 0.625000 0.913464
vt 0.750367 0.730970
vt 0.625000 0.875367
vt 0.715256 0.707867
vt 0.625000 0.840256
vt 0.684482 0.676777
vt 0.625000 0.750000
vt 0.659226 0.638893
vt 0.625000 0.638893
vt 0.640459 0.595671
vt 0.625000 0.595671
vt 0.628902 0.548773
vt 0.625000 0.548773
s 0
usemtl Material.001
f 33/61/20 34/64/20 36/69/20 35/67/20
f 35/67/21 36/69/21 38/72/21 37/71/21
f 40/74/22 48/91/22 34/65/22 33/62/22
f 38/72/23 36/70/23 34/66/23 48/90/23 50/93/23 51/95/23 52/97/23 53/99/23 54/101/23 55/103/23 56/105/23 49/92/23
f 37/71/23 38/72/23 49/92/23 39/73/23
f 48/91/24 40/74/24 47/88/24 50/94/24
f 50/94/25 47/88/25 46/86/25 51/96/25
f 51/96/26 46/86/26 45/84/26 52/98/26
f 52/98/27 45/84/27 44/82/27 53/100/27
f 53/100/28 44/82/28 43/80/28 54/102/28
f 54/102/29 43/80/29 42/78/29 55/104/29
f 55/104/30 42/78/30 41/76/30 56/106/30
f 56/106/31 41/76/31 39/73/31 49/92/31
f 35/68/32 37/71/32 39/73/32 41/77/32 42/79/32 43/81/32 44/83/32 45/85/32 46/87/32 47/89/32 40/75/32 33/63/32
o Cube.003
v 0.243872 -0.529573 -0.078082
v 0.243872 -0.529573 0.165785
v 0.245038 -0.497540 -0.078082
v 0.245038 -0.497540 0.165785
v 0.292011 -0.531326 -0.078082
v 0.292011 -0.531326 0.165785
v 0.293177 -0.499293 -0.078082
v 0.293177 -0.499293 0.165785
vn -0.9993 0.0364 -0.0000
vn 0.0364 0.9993 -0.0000
vn 0.9993 -0.0364 -0.0000
vn -0.0364 -0.9993 -0.0000
vn -0.0000 -0.0000 -1.0000
vn -0.0000 -0.0000 1.0000
vt 0.375000 0.000000
vt 0.375000 1.000000
vt 0.125000 0.750000
vt 0.625000 0.000000
vt 0.625000 1.000000
vt 0.875000 0.750000
vt 0.375000 0.250000
vt 0.125000 0.500000
vt 0.625000 0.250000
vt 0.875000 0.500000
vt 0.375000 0.750000
vt 0.625000 0.750000
vt 0.375000 0.500000
vt 0.625000 0.500000
s 0
usemtl Material.002
f 57/107/33 58/110/33 60/115/33 59/113/33
f 59/113/34 60/115/34 64/120/34 63/119/34
f 63/119/35 64/120/35 62/118/35 61/117/35
f 61/117/36 62/118/36 58/111/36 57/108/36
f 59/114/37 63/119/37 61/117/37 57/109/37
f 64/120/38 60/116/38 58/112/38 62/118/38
o Cube.004
v 0.280061 0.479430 -0.079583
v 0.280061 0.479430 0.164284
v 0.281227 0.511463 -0.079583
v 0.281227 0.511463 0.164284
v 0.328200 0.477677 -0.079583
v 0.328200 0.477677 0.164284
v 0.329366 0.509710 -0.079583
v 0.329366 0.509710 0.164284
vn -0.9993 0.0364 -0.0000
vn 0.0364 0.9993 -0.0000
vn 0.9993 -0.0364 -0.0000
vn -0.0364 -0.9993 -0.0000
vn -0.0000 -0.0000 -1.0000
vn -0.0000 -0.0000 1.0000
vt 0.375000 0.000000
vt 0.375000 1.000000
vt 0.125000 0.750000
vt 0.625000 0.000000
vt 0.625000 1.000000
vt 0.875000 0.750000
vt 0.375000 0.250000
vt 0.125000 0.500000
vt 0.625000 0.250000
vt 0.875000 0.500000
vt 0.375000 0.750000
vt 0.625000 0.750000
vt 0.375000 0.500000
vt 0.625000 0.500000
s 0
usemtl Material.002
f 65/121/39 66/124/39 68/129/39 67/127/39
f 67/127/40 68/129/40 72/134/40 71/133/40
f 71/133/41 72/134/41 70/132/41 69/131/41
f 69/131/42 70/132/42 66/125/42 65/122/42
f 67/128/43 71/133/43 69/131/43 65/123/43
f 72/134/44 68/130/44 66/126/44 70/132/44
o Cube.005
v -0.319762 0.502856 -0.080819
v -0.319762 0.502856 0.163048
v -0.318596 0.534889 -0.080819
v -0.318596 0.534889 0.163048
v -0.271623 0.501104 -0.080819
v -0.271623 0.501104 0.163048
v -0.270457 0.533137 -0.080819
v -0.270457 0.533137 0.163048
vn -0.9993 0.0364 -0.0000
vn 0.0364 0.9993 -0.0000
vn 0.9993 -0.0364 -0.0000
vn -0.0364 -0.9993 -0.0000
vn -0.0000 -0.0000 -1.0000
vn -0.0000 -0.0000 1.0000
vt 0.375000 0.000000
vt 0.375000 1.000000
vt 0.125000 0.750000
vt 0.625000 0.000000
vt 0.625000 1.000000
vt 0.875000 0.750000
vt 0.375000 0.250000
vt 0.125000 0.500000
vt 0.625000 0.250000
vt 0.875000 0.500000
vt 0.375000 0.750000
vt 0.625000 0.750000
vt 0.375000 0.500000
vt 0.625000 0.500000
s 0
usemtl Material.002
f 73/135/45 74/138/45 76/143/45 75/141/45
f 75/141/46 76/143/46 80/148/46 79/147/46
f 79/147/47 80/148/47 78/146/47 77/145/47
f 77/145/48 78/146/48 74/139/48 73/136/48
f 75/142/49 79/147/49 77/145/49 73/137/49
f 80/148/50 76/144/50 74/140/50 78/146/50
o Cube.006
v -0.364547 -0.517666 -0.075717
v -0.364547 -0.517666 0.168150
v -0.363381 -0.485633 -0.075717
v -0.363381 -0.485633 0.168150
v -0.316408 -0.519418 -0.075717
v -0.316408 -0.519418 0.168150
v -0.315242 -0.487386 -0.075717
v -0.315242 -0.487386 0.168150
vn -0.9993 0.0364 -0.0000
vn 0.0364 0.9993 -0.0000
vn 0.9993 -0.0364 -0.0000
vn -0.0364 -0.9993 -0.0000
vn -0.0000 -0.0000 -1.0000
vn -0.0000 -0.0000 1.0000
vt 0.375000 0.000000
vt 0.375000 1.000000
vt 0.125000 0.750000
vt 0.625000 0.000000
vt 0.625000 1.000000
vt 0.875000 0.750000
vt 0.375000 0.250000
vt 0.125000 0.500000
vt 0.625000 0.250000
vt 0.875000 0.500000
vt 0.375000 0.750000
vt 0.625000 0.750000
vt 0.375000 0.500000
vt 0.625000 0.500000
s 0
usemtl Material.002
f 81/149/51 82/152/51 84/157/51 83/155/51
f 83/155/52 84/157/52 88/162/52 87/161/52
f 87/161/53 88/162/53 86/160/53 85/159/53
f 85/159/54 86/160/54 82/153/54 81/150/54
f 83/156/55 87/161/55 85/159/55 81/151/55
f 88/162/56 84/158/56 82/154/56 86/160/56
