# SSTK version 0.8.0
# 16
mtllib original-16.mtl
o HR_9_2/HR_9/mesh4/mesh4-geometry#mesh4-geometry
v -0.684397 -0.640238 0.249837
v 0.719867 -0.640238 0.214731
v 0.719867 -0.640238 0.249837
v -0.684397 -0.640238 0.214731
v 0.719867 -0.570024 0.249837
v -0.684397 -0.570024 0.214731
v -0.684397 -0.570024 0.249837
v 0.719867 -0.570024 0.214731
vt 0.5625 0
vt 0 0.015625
vt 0 0
vt 0.5625 0.015625
vt 0.5625 0.03125
vt 0 0.03125
vt -0.5625 0.015625
vt -0.5625 0
vt -1.06615 -3.816969
vt -1.0349 -4.267435
vt -1.0349 -3.816969
vt -1.06615 -4.267435
vn 0 -1 0
vn 0 0 1
vn 0 1 0
vn 0 0 -1
usemtl material_0_0
f 1/1/1 2/2/1 3/3/1
f 2/2/1 1/1/1 4/4/1
f 5/3/2 1/5/2 3/6/2
f 1/5/2 5/3/2 7/1/2
f 5/3/3 6/7/3 7/8/3
f 6/7/3 5/3/3 8/2/3
usemtl material_1_0
f 6/9/4 2/10/4 4/11/4
f 2/10/4 6/9/4 8/12/4
usemtl material_2_2
f 3//3 2//3 1//3
f 1//1 2//1 3//1
f 4//3 1//3 2//3
f 2//1 1//1 4//1
f 3//4 1//4 5//4
f 5//2 1//2 3//2
f 4//2 2//2 6//2
f 6//4 2//4 4//4
f 7//4 5//4 1//4
f 1//2 5//2 7//2
f 8//2 6//2 2//2
f 2//4 6//4 8//4
f 7//1 6//1 5//1
f 5//3 6//3 7//3
f 8//1 5//1 6//1
f 6//3 5//3 8//3
