# SSTK version 0.8.0
# 31
mtllib original-31.mtl
o RB_21_L1/RB_21_L/mesh20/mesh20-geometry#mesh20-geometry
v -0.131468 -0.631461 0.284944
v 0.008958 -0.631461 0.249837
v 0.008958 -0.631461 0.284944
v -0.131468 -0.631461 0.249837
v 0.008958 0.614823 0.284944
v -0.131468 0.614823 0.249837
v 0.008958 0.614823 0.249837
v -0.131468 0.614823 0.284944
vt 0.334438 -1.223669
vt 0.271938 -1.208044
vt 0.271938 -1.223669
vt 0.334438 -1.208044
vt -0.613131 -1.208044
vt -0.628756 -0.715857
vt -0.628756 -1.208044
vt -0.691256 -1.208044
vt 0.350063 -1.208044
vt 0.334438 -0.715857
vt -0.613131 -0.715857
vt -0.691256 -0.715857
vt 0.350063 -0.715857
vt 0.271938 -0.715857
vt 0.271938 -0.700232
vt 0.334438 -0.700232
vn 0 -1 0
vn 1 0 0
vn 0 0 1
vn -1 0 0
vn 0 0 -1
vn 0 1 0
usemtl material_0_0
f 1/1/1 2/2/1 3/3/1
f 2/2/1 1/1/1 4/4/1
f 2/5/2 5/6/2 3/7/2
f 5/6/3 1/8/3 3/7/3
f 1/9/4 6/10/4 4/4/4
f 6/10/5 2/2/5 4/4/5
f 5/6/2 2/5/2 7/11/2
f 1/8/3 5/6/3 8/12/3
f 6/10/4 1/9/4 8/13/4
f 2/2/5 6/10/5 7/14/5
f 6/10/6 5/15/6 7/14/6
f 5/15/6 6/10/6 8/16/6
f 3//6 2//6 1//6
f 4//6 1//6 2//6
f 3//4 5//4 2//4
f 3//5 1//5 5//5
f 4//2 6//2 1//2
f 4//3 2//3 6//3
f 7//4 2//4 5//4
f 8//5 5//5 1//5
f 8//2 1//2 6//2
f 7//3 6//3 2//3
f 7//1 5//1 6//1
f 8//1 6//1 5//1
